<?xml version="1.0" standalone="no"?>
<!DOCTYPE svg PUBLIC "-//W3C//DTD SVG 20010904//EN"
 "http://www.w3.org/TR/2001/REC-SVG-20010904/DTD/svg10.dtd">
<svg version="1.0" xmlns="http://www.w3.org/2000/svg"
 width="256.000000pt" height="256.000000pt" viewBox="0 0 256.000000 256.000000"
 preserveAspectRatio="xMidYMid meet">
<metadata>
Created by potrace 1.11, written by Peter Selinger 2001-2013
</metadata>
<g transform="translate(0.000000,256.000000) scale(0.100000,-0.100000)"
fill="#000000" stroke="none">
<path d="M0 1280 l0 -1280 1280 0 1280 0 0 1280 0 1280 -1280 0 -1280 0 0
-1280z m1518 1059 c363 -93 560 -460 521 -975 -24 -320 -150 -556 -362 -678
-37 -21 -67 -41 -67 -45 0 -3 13 -29 29 -57 39 -67 116 -151 199 -216 37 -28
70 -54 75 -58 4 -3 -26 -45 -67 -93 l-75 -87 -75 61 c-123 98 -246 252 -292
363 l-17 42 -106 1 c-327 4 -560 163 -662 453 -103 290 -87 693 37 949 63 129
163 231 285 289 79 38 183 67 274 76 72 7 229 -6 303 -25z"/>
<path d="M1150 2144 c-121 -32 -217 -116 -276 -239 -67 -142 -95 -342 -76
-543 38 -383 199 -564 503 -563 206 1 341 82 425 255 57 117 69 193 69 426 0
233 -12 308 -70 428 -82 172 -219 253 -423 251 -54 0 -122 -7 -152 -15z"/>
</g>
</svg>
